<?xml version="1.0" standalone="no"?>
<!DOCTYPE svg PUBLIC "-//W3C//DTD SVG 20010904//EN"
 "http://www.w3.org/TR/2001/REC-SVG-20010904/DTD/svg10.dtd">
<svg version="1.0" xmlns="http://www.w3.org/2000/svg"
 width="260.000000pt" height="260.000000pt" viewBox="0 0 260.000000 260.000000"
 preserveAspectRatio="xMidYMid meet">
<metadata>
Created by potrace 1.14, written by Peter Selinger 2001-2017
</metadata>
<g transform="translate(0.000000,260.000000) scale(0.100000,-0.100000)"
fill="#000000" stroke="none">
<path d="M1201 2217 c-52 -161 -97 -297 -100 -304 -4 -7 -105 57 -271 172
-146 101 -266 182 -267 181 -1 -1 43 -129 97 -285 55 -155 100 -287 100 -292
0 -5 -133 -10 -307 -11 l-307 -3 244 -177 c135 -97 253 -183 263 -190 17 -13
-4 -31 -242 -213 -143 -109 -260 -200 -258 -201 1 -1 139 1 307 5 168 4 307 7
309 5 2 -2 -38 -130 -88 -285 -50 -155 -90 -284 -88 -286 2 -2 118 80 258 181
140 101 257 181 260 178 3 -4 50 -133 103 -287 54 -153 103 -291 108 -305 9
-21 22 16 97 265 48 160 89 296 92 303 3 8 91 -50 247 -163 134 -97 245 -175
246 -173 2 1 -39 135 -92 296 -52 161 -93 295 -90 298 4 3 134 8 290 11 155 3
299 8 318 12 34 7 31 9 -210 175 -135 92 -250 173 -257 180 -9 8 49 55 238
191 l249 180 -318 5 -318 5 91 305 c51 168 91 306 89 308 -1 2 -114 -82 -251
-186 -152 -117 -250 -186 -254 -178 -4 6 -46 135 -94 286 -49 151 -91 278 -94
282 -3 4 -48 -124 -100 -285z"/>
</g>
</svg>
